<?xml version="1.0" encoding="UTF-8" standalone="no"?>
<svg width="170px" height="46px" viewBox="0 0 170 46" version="1.1" xmlns="http://www.w3.org/2000/svg" xmlns:xlink="http://www.w3.org/1999/xlink">
    <!-- Generator: Sketch 39.1 (31720) - http://www.bohemiancoding.com/sketch -->
    <title>Visualize</title>
    <desc>Created with Sketch.</desc>
    <defs></defs>
    <g id="Page-1" stroke="none" stroke-width="1" fill="none" fill-rule="evenodd">
        <path d="M2.1328125,33.75 C2.1328125,33.7187498 2.10937523,33.4453151 2.0625,32.9296875 C2.01562477,32.4140599 1.96093781,31.7265668 1.8984375,30.8671875 C1.83593719,30.0078082 1.76171918,29.0195368 1.67578125,27.9023438 C1.58984332,26.7851507 1.50390668,25.6132874 1.41796875,24.3867188 C1.33203082,23.1601501 1.24609418,21.9101626 1.16015625,20.6367188 C1.07421832,19.3632749 1.00000031,18.1445371 0.9375,16.9804688 C0.874999688,15.8164004 0.824218945,14.7460986 0.78515625,13.7695312 C0.746093555,12.7929639 0.7265625,11.9843782 0.7265625,11.34375 C0.7265625,10.3906202 0.847655039,9.65625258 1.08984375,9.140625 C1.33203246,8.62499742 1.62499828,8.24609496 1.96875,8.00390625 C2.31250172,7.76171754 2.67187312,7.62109395 3.046875,7.58203125 C3.42187688,7.54296855 3.74999859,7.5234375 4.03125,7.5234375 C4.60937789,7.5234375 5.08202941,7.60156172 5.44921875,7.7578125 C5.81640809,7.91406328 6.1054677,8.14452973 6.31640625,8.44921875 C6.5273448,8.75390777 6.67187461,9.12499781 6.75,9.5625 C6.82812539,10.0000022 6.8671875,10.4921848 6.8671875,11.0390625 L7.8984375,38.90625 L23.15625,9.609375 C23.2656255,9.23437312 23.4531237,8.87500172 23.71875,8.53125 C23.9843763,8.18749828 24.3046856,7.88672004 24.6796875,7.62890625 C25.0546894,7.37109246 25.4687477,7.16796949 25.921875,7.01953125 C26.3750023,6.87109301 26.8437476,6.796875 27.328125,6.796875 C27.8906278,6.796875 28.3320296,7.04296629 28.6523438,7.53515625 C28.9726579,8.02734621 29.1328125,8.67187102 29.1328125,9.46875 C29.1328125,10.0312528 28.9843765,10.7812453 28.6875,11.71875 C28.3906235,12.6562547 27.9960962,13.7109316 27.5039062,14.8828125 C27.0117163,16.0546934 26.4375033,17.3124933 25.78125,18.65625 C25.1249967,20.0000067 24.4414098,21.3671805 23.7304688,22.7578125 C23.0195277,24.1484445 22.3007849,25.5273369 21.5742188,26.8945312 C20.8476526,28.2617256 20.1562533,29.546869 19.5,30.75 C19.3124991,31.1093768 19.1718755,31.484373 19.078125,31.875 C18.9843745,32.265627 18.9375,32.656248 18.9375,33.046875 C18.9375,33.640628 19.0546863,34.2187472 19.2890625,34.78125 C19.5234387,35.3437528 19.8867163,35.8437478 20.3789062,36.28125 C20.8710962,36.7187522 21.49609,37.066405 22.2539062,37.3242188 C23.0117225,37.5820325 23.9140573,37.7109375 24.9609375,37.7109375 C25.2109387,37.7109375 25.4882797,37.6562505 25.7929688,37.546875 C26.0976578,37.4374995 26.4140609,37.2929696 26.7421875,37.1132812 C27.0703141,36.9335929 27.4062483,36.7265637 27.75,36.4921875 C28.0937517,36.2578113 28.4296859,36.0234387 28.7578125,35.7890625 C29.5078163,35.2265597 30.281246,34.5859411 31.078125,33.8671875 L30.5390625,38.71875 C29.242181,39.7500052 27.9492252,40.5742157 26.6601562,41.1914062 C25.3710873,41.8085968 24.1640681,42.1171875 23.0390625,42.1171875 C21.9765572,42.1171875 21.0351604,41.9726577 20.2148438,41.6835938 C19.3945271,41.3945298 18.6953154,40.9843777 18.1171875,40.453125 C17.5390596,39.9218723 17.101564,39.2812538 16.8046875,38.53125 C16.507811,37.7812462 16.359375,36.9453171 16.359375,36.0234375 C16.359375,35.5546852 16.4062495,35.0468777 16.5,34.5 C15.5781204,36.6562608 14.7148478,38.457024 13.9101562,39.9023438 C13.1054647,41.3476635 12.3281288,42.5039019 11.578125,43.3710938 C10.8281212,44.2382856 10.101566,44.8554669 9.3984375,45.2226562 C8.69530898,45.5898456 8.00000344,45.7734375 7.3125,45.7734375 C6.37499531,45.7734375 5.60937797,45.6171891 5.015625,45.3046875 C4.42187203,44.9921859 3.94922051,44.5585965 3.59765625,44.0039062 C3.24609199,43.449216 2.98828207,42.7890663 2.82421875,42.0234375 C2.66015543,41.2578087 2.5429691,40.429692 2.47265625,39.5390625 C2.4023434,38.648433 2.35156266,37.7109424 2.3203125,36.7265625 C2.28906234,35.7421826 2.22656297,34.750005 2.1328125,33.75 L2.1328125,33.75 Z M42.4921875,40.0078125 C41.9296847,40.5234401 41.2304729,41.0742158 40.3945312,41.6601562 C39.5585896,42.2460967 38.6562548,42.7851538 37.6875,43.2773438 C36.7187452,43.7695337 35.7304738,44.1796859 34.7226562,44.5078125 C33.7148387,44.8359391 32.757817,45 31.8515625,45 C31.0390584,45 30.3554715,44.8867199 29.8007812,44.6601562 C29.246091,44.4335926 28.7968767,44.1171895 28.453125,43.7109375 C28.1093733,43.3046855 27.863282,42.8085967 27.7148438,42.2226562 C27.5664055,41.6367158 27.4921875,40.992191 27.4921875,40.2890625 C27.4921875,39.3046826 27.6015614,38.1562566 27.8203125,36.84375 C28.2578147,34.3124873 28.5390619,32.8906266 28.6640625,32.578125 C28.8828136,31.8906216 29.3203092,30.3671993 29.9765625,28.0078125 C30.5078152,26.0390527 30.8359369,24.7578155 30.9609375,24.1640625 C31.0390629,23.7734355 31.2578107,23.4218766 31.6171875,23.109375 C31.9453141,22.8281236 32.3164042,22.5976571 32.7304688,22.4179688 C33.1445333,22.2382804 33.5742165,22.1054692 34.0195312,22.0195312 C34.464846,21.9335933 34.8671857,21.890625 35.2265625,21.890625 C35.8828158,21.890625 36.3281238,22.0117175 36.5625,22.2539062 C36.7968762,22.496095 36.9140625,22.8203105 36.9140625,23.2265625 C36.9140625,23.5703142 36.8359383,24.066403 36.6796875,24.7148438 C36.5234367,25.3632845 36.3281262,26.0976521 36.09375,26.9179688 C35.8593738,27.7382854 35.5625018,28.7226505 35.203125,29.8710938 C34.8437482,31.019537 34.5468762,32.0664015 34.3125,33.0117188 C34.0781238,33.957036 33.8828133,34.8789018 33.7265625,35.7773438 C33.5703117,36.6757857 33.4921875,37.4843714 33.4921875,38.203125 C33.4921875,38.9062535 33.5703117,39.4648417 33.7265625,39.8789062 C33.8828133,40.2929708 34.2031226,40.5 34.6875,40.5 C35.2500028,40.5 35.8749966,40.3046895 36.5625,39.9140625 C37.2500034,39.5234355 37.945309,39.050784 38.6484375,38.4960938 C39.351566,37.9414035 40.0390591,37.3671905 40.7109375,36.7734375 C41.3828159,36.1796845 41.9765599,35.6718771 42.4921875,35.25 L42.4921875,40.0078125 Z M32.015625,15.4453125 C32.015625,15.0859357 32.0937492,14.6796898 32.25,14.2265625 C32.4062508,13.7734352 32.6601545,13.3476582 33.0117188,12.9492188 C33.363283,12.5507793 33.8320283,12.2148451 34.4179688,11.9414062 C35.0039092,11.6679674 35.7343706,11.53125 36.609375,11.53125 C37.1562527,11.53125 37.6718726,11.5937494 38.15625,11.71875 C38.6406274,11.8437506 39.0624982,12.035155 39.421875,12.2929688 C39.7812518,12.5507825 40.0664052,12.8906229 40.2773438,13.3125 C40.4882823,13.7343771 40.59375,14.2343721 40.59375,14.8125 C40.59375,15.3437527 40.5078134,15.8593725 40.3359375,16.359375 C40.1640616,16.8593775 39.8906269,17.3046855 39.515625,17.6953125 C39.1406231,18.0859395 38.6679716,18.4023425 38.0976562,18.6445312 C37.5273409,18.88672 36.843754,19.0078125 36.046875,19.0078125 C34.6718681,19.0078125 33.6562533,18.683597 33,18.0351562 C32.3437467,17.3867155 32.015625,16.5234429 32.015625,15.4453125 L32.015625,15.4453125 Z M40.1015625,36 C40.9765669,35.2499962 41.6874973,34.6250025 42.234375,34.125 C42.7812527,33.6249975 43.3281223,33.0429721 43.875,32.3789062 C44.4218777,31.7148404 44.8554671,31.1718771 45.1757812,30.75 C45.4960954,30.3281229 45.8749978,29.8281279 46.3125,29.25 C46.7500022,28.6718721 47.2812469,27.9648479 47.90625,27.1289062 C48.5312531,26.2929646 49.343745,25.2500063 50.34375,24 C50.546876,23.7187486 50.7734363,23.4453138 51.0234375,23.1796875 C51.2734387,22.9140612 51.5507797,22.6757823 51.8554688,22.4648438 C52.1601578,22.2539052 52.4960919,22.0820319 52.8632812,21.9492188 C53.2304706,21.8164056 53.6406227,21.75 54.09375,21.75 C54.8437538,21.75 55.421873,21.8320304 55.828125,21.9960938 C56.234377,22.1601571 56.5312491,22.3593738 56.71875,22.59375 C56.9062509,22.8281262 57.0156248,23.0742175 57.046875,23.3320312 C57.0781252,23.589845 57.09375,23.8124991 57.09375,24 C57.09375,24.3750019 56.945314,24.7890602 56.6484375,25.2421875 C56.351561,25.6953148 56.0234393,26.1328104 55.6640625,26.5546875 C55.3046857,26.9765646 54.9648454,27.3632795 54.6445312,27.7148438 C54.3242171,28.066408 54.1406252,28.3281241 54.09375,28.5 C54.09375,28.9843774 54.1289059,29.4257793 54.1992188,29.8242188 C54.2695316,30.2226582 54.3632807,30.6132793 54.4804688,30.9960938 C54.5976568,31.3789082 54.7187494,31.7851541 54.84375,32.2148438 C54.9687506,32.6445334 55.0898432,33.1406222 55.2070312,33.703125 C55.3242193,34.2656278 55.3398442,35.0390576 55.2539062,36.0234375 C55.1679683,37.0078174 55.125,37.999995 55.125,39 C55.6875028,38.6249981 56.2929655,38.2851578 56.9414062,37.9804688 C57.589847,37.6757797 58.2656215,37.3593766 58.96875,37.03125 C59.6718785,36.7031234 60.3945275,36.3398457 61.1367188,35.9414062 C61.87891,35.5429668 62.6249962,35.0625028 63.375,34.5 L63.3984375,39.75 C62.4296827,40.5000038 61.3086001,41.2031217 60.0351562,41.859375 C58.7617124,42.5156283 57.4257882,43.0937475 56.0273438,43.59375 C54.6288993,44.0937525 53.2148509,44.4882798 51.7851562,44.7773438 C50.3554616,45.0664077 49.0000064,45.2109375 47.71875,45.2109375 C46.7968704,45.2109375 45.937504,45.1250009 45.140625,44.953125 C44.343746,44.7812491 43.6445343,44.5117206 43.0429688,44.1445312 C42.4414032,43.7773419 41.9531269,43.296878 41.578125,42.703125 C41.2031231,42.109372 40.9765629,41.3906292 40.8984375,40.546875 C40.6796864,40.5937502 40.4648448,40.6249999 40.2539062,40.640625 C40.0429677,40.6562501 39.8359385,40.6640625 39.6328125,40.6640625 C39.3828113,40.6640625 39.1484386,40.6562501 38.9296875,40.640625 C38.7109364,40.6249999 38.5234383,40.5664068 38.3671875,40.4648438 C38.2109367,40.3632807 38.085938,40.1992199 37.9921875,39.9726562 C37.898437,39.7460926 37.8515625,39.4218771 37.8515625,39 C37.8515625,38.6249981 37.9453116,38.2773454 38.1328125,37.9570312 C38.3203134,37.6367171 38.5390613,37.3515637 38.7890625,37.1015625 C39.0390637,36.8515613 39.2890613,36.6328134 39.5390625,36.4453125 C39.7890637,36.2578116 39.9765619,36.1093755 40.1015625,36 L40.1015625,36 Z M43.1015625,39 C43.2890634,39 43.4960926,39.1171863 43.7226562,39.3515625 C43.9492199,39.5859387 44.210936,39.8437486 44.5078125,40.125 C44.804689,40.4062514 45.1484355,40.6640613 45.5390625,40.8984375 C45.9296895,41.1328137 46.3749975,41.25 46.875,41.25 C47.484378,41.25 47.9882793,41.1484385 48.3867188,40.9453125 C48.7851582,40.7421865 49.1015613,40.4726579 49.3359375,40.1367188 C49.5703137,39.8007796 49.7343745,39.4101585 49.828125,38.9648438 C49.9218755,38.519529 49.96875,38.0546899 49.96875,37.5703125 C49.96875,37.1484354 49.9414065,36.7187522 49.8867188,36.28125 C49.832031,35.8437478 49.8398434,35.3007845 49.9101562,34.6523438 C49.9804691,34.003903 49.9648443,33.503908 49.8632812,33.1523438 C49.7617182,32.8007795 49.6718754,32.5000012 49.59375,32.25 L43.1015625,39 Z M78.84375,23.15625 C78.84375,23.5781271 78.7968755,24.1523401 78.703125,24.8789062 C78.6093745,25.6054724 78.488282,26.4023394 78.3398438,27.2695312 C78.1914055,28.1367231 77.9882825,29.1757752 77.7304688,30.3867188 C77.472655,31.5976623 77.269532,32.6015585 77.1210938,33.3984375 C76.9726555,34.1953165 76.851563,34.8945282 76.7578125,35.4960938 C76.664062,36.0976593 76.6171875,36.5156238 76.6171875,36.75 C76.6171875,37.1875022 76.6249999,37.5898419 76.640625,37.9570312 C76.6562501,38.3242206 76.7031246,38.6445299 76.78125,38.9179688 C76.8593754,39.1914076 76.9804679,39.402343 77.1445312,39.5507812 C77.3085946,39.6992195 77.5468734,39.7734375 77.859375,39.7734375 C78.2031267,39.7734375 78.6210913,39.6875009 79.1132812,39.515625 C79.6054712,39.3437491 80.1289035,39.1132827 80.6835938,38.8242188 C81.238284,38.5351548 81.8046846,38.2070331 82.3828125,37.8398438 C82.9609404,37.4726544 83.5117161,37.0859395 84.0351562,36.6796875 C84.5585964,36.2734355 85.0351541,35.8710957 85.4648438,35.4726562 C85.8945334,35.0742168 86.2421862,34.7031267 86.5078125,34.359375 C86.5078125,34.8750026 86.5117187,35.3437479 86.5195312,35.765625 C86.5273438,36.1875021 86.53125,36.5898418 86.53125,36.9726562 C86.53125,37.3554707 86.5351562,37.749998 86.5429688,38.15625 C86.5507813,38.562502 86.5546875,39.0156225 86.5546875,39.515625 C86.2109358,39.8593767 85.7851588,40.2265605 85.2773438,40.6171875 C84.7695287,41.0078145 84.2070343,41.3984355 83.5898438,41.7890625 C82.9726532,42.1796895 82.3164097,42.5546857 81.6210938,42.9140625 C80.9257778,43.2734393 80.226566,43.5898424 79.5234375,43.8632812 C78.820309,44.1367201 78.1250034,44.3554679 77.4375,44.5195312 C76.7499966,44.6835946 76.109378,44.765625 75.515625,44.765625 C74.921872,44.765625 74.4140646,44.6484387 73.9921875,44.4140625 C73.5703104,44.1796863 73.2070328,43.8515646 72.9023438,43.4296875 C72.5976547,43.0078104 72.3398448,42.5039092 72.1289062,41.9179688 C71.9179677,41.3320283 71.7343758,40.6796911 71.578125,39.9609375 C71.0156222,40.6953162 70.4218781,41.3710907 69.796875,41.9882812 C69.1718719,42.6054718 68.5351595,43.1406227 67.8867188,43.59375 C67.238278,44.0468773 66.5820346,44.4023425 65.9179688,44.6601562 C65.2539029,44.91797 64.6093781,45.046875 63.984375,45.046875 C63.4687474,45.046875 62.9843773,44.9609384 62.53125,44.7890625 C62.0781227,44.6171866 61.675783,44.328127 61.3242188,43.921875 C60.9726545,43.515623 60.6953135,42.9804721 60.4921875,42.3164062 C60.2890615,41.6523404 60.1875,40.8281299 60.1875,39.84375 C60.2031251,37.7968648 60.3515611,36.226568 60.6328125,35.1328125 C61.1015648,33.5390545 61.5390605,31.1640783 61.9453125,28.0078125 C61.9765627,27.7734363 62.0351558,27.4570332 62.1210938,27.0585938 C62.2070317,26.6601543 62.324218,26.2265648 62.4726562,25.7578125 C62.6210945,25.2890602 62.8046864,24.8125024 63.0234375,24.328125 C63.2421886,23.8437476 63.4999985,23.406252 63.796875,23.015625 C64.0937515,22.624998 64.4414043,22.3046887 64.8398438,22.0546875 C65.2382832,21.8046863 65.6874975,21.6718751 66.1875,21.65625 C67.0156291,21.6875002 67.6093732,21.7929679 67.96875,21.9726562 C68.3281268,22.1523446 68.5078125,22.3749987 68.5078125,22.640625 C68.3671868,23.4687541 68.2148446,24.3906199 68.0507812,25.40625 C67.8867179,26.4218801 67.7187509,27.4453073 67.546875,28.4765625 C67.3749991,29.5078177 67.16797,30.6562437 66.9257812,31.921875 C66.6835925,33.1875063 66.5000006,34.2031212 66.375,34.96875 C66.2499994,35.7343788 66.1523441,36.3515602 66.0820312,36.8203125 C66.0117184,37.2890648 65.9765625,37.5312499 65.9765625,37.546875 C65.9765625,37.8281264 66.003906,38.097655 66.0585938,38.3554688 C66.1132815,38.6132825 66.195312,38.843749 66.3046875,39.046875 C66.414063,39.250001 66.5546866,39.4140619 66.7265625,39.5390625 C66.8984384,39.6640631 67.1015613,39.7265625 67.3359375,39.7265625 C67.6796892,39.7265625 68.0312482,39.6367196 68.390625,39.4570312 C68.7500018,39.2773429 69.0859359,39.0156267 69.3984375,38.671875 C69.7265641,38.3593734 70.0156238,37.9531275 70.265625,37.453125 C70.5156262,36.9687476 70.7031244,36.4062532 70.828125,35.765625 L73.40625,22.9921875 C73.4843754,22.6171856 73.8007785,22.3007825 74.3554688,22.0429688 C74.910159,21.785155 75.539059,21.65625 76.2421875,21.65625 C77.0390665,21.65625 77.6718727,21.7968736 78.140625,22.078125 C78.6093773,22.3593764 78.84375,22.7187478 78.84375,23.15625 L78.84375,23.15625 Z M108.304688,39.2578125 C107.945311,39.757815 107.464847,40.3437466 106.863281,41.015625 C106.261716,41.6875034 105.585941,42.328122 104.835938,42.9375 C104.085934,43.546878 103.281254,44.0624979 102.421875,44.484375 C101.562496,44.9062521 100.703129,45.1171875 99.84375,45.1171875 C98.8124948,45.1171875 97.9531284,44.7851596 97.265625,44.1210938 C96.5781216,43.4570279 95.9843775,42.4921938 95.484375,41.2265625 C95.1093731,41.6640647 94.6484402,42.1093727 94.1015625,42.5625 C93.5546848,43.0156273 92.9570345,43.4257794 92.3085938,43.7929688 C91.660153,44.1601581 90.9843785,44.4609363 90.28125,44.6953125 C89.5781215,44.9296887 88.8750035,45.046875 88.171875,45.046875 C87.4218712,45.046875 86.6914098,44.8945328 85.9804688,44.5898438 C85.2695277,44.2851547 84.6406277,43.8476591 84.09375,43.2773438 C83.5468723,42.7070284 83.1093766,42.0117229 82.78125,41.1914062 C82.4531234,40.3710896 82.2890625,39.4453177 82.2890625,38.4140625 C82.2890625,37.2421816 82.4531234,36.0390687 82.78125,34.8046875 C83.1093766,33.5703063 83.6171841,32.2343822 84.3046875,30.796875 C84.9921909,29.3593678 85.7304648,28.1171927 86.5195312,27.0703125 C87.3085977,26.0234323 88.1718703,25.1093789 89.109375,24.328125 C90.0468797,23.5468711 91.0351511,22.9257836 92.0742188,22.4648438 C93.1132864,22.0039039 94.1718696,21.7734375 95.25,21.7734375 C95.6093768,21.7734375 95.890624,21.8437493 96.09375,21.984375 C96.296876,22.1250007 96.4648431,22.2851554 96.5976562,22.4648438 C96.7304694,22.6445321 96.8593744,22.8203116 96.984375,22.9921875 C97.1093756,23.1640634 97.2656241,23.2890621 97.453125,23.3671875 C97.6406259,23.4453129 97.8320303,23.4960936 98.0273438,23.5195312 C98.2226572,23.5429689 98.421874,23.5546875 98.625,23.5546875 C98.7968759,23.5546875 98.9726554,23.5507813 99.1523438,23.5429688 C99.3320321,23.5351562 99.5078116,23.53125 99.6796875,23.53125 C99.9140637,23.53125 100.132811,23.5546873 100.335938,23.6015625 C100.539064,23.6484377 100.718749,23.7499992 100.875,23.90625 C101.031251,24.0625008 101.152343,24.2812486 101.238281,24.5625 C101.324219,24.8437514 101.367188,25.2265601 101.367188,25.7109375 C101.367188,26.4609413 101.289063,27.2929642 101.132812,28.2070312 C100.976562,29.1210983 100.804688,30.0585889 100.617188,31.0195312 C100.429687,31.9804736 100.203126,33.0703064 99.9375,34.2890625 C99.6718737,35.5078186 99.5390625,36.5468707 99.5390625,37.40625 C99.5390625,38.1406287 99.6054681,38.7148417 99.7382812,39.1289062 C99.8710944,39.5429708 100.156248,39.75 100.59375,39.75 C100.921877,39.75 101.265623,39.6679696 101.625,39.5039062 C101.984377,39.3398429 102.347654,39.1250013 102.714844,38.859375 C103.082033,38.5937487 103.449217,38.2929704 103.816406,37.9570312 C104.183596,37.6210921 104.531248,37.2734393 104.859375,36.9140625 C105.625004,36.0703083 106.398434,35.1171928 107.179688,34.0546875 L108.304688,39.2578125 Z M88.2890625,37.40625 C88.2890625,37.796877 88.316406,38.1757794 88.3710938,38.5429688 C88.4257815,38.9101581 88.5234368,39.2382798 88.6640625,39.5273438 C88.8046882,39.8164077 88.9921863,40.0507804 89.2265625,40.2304688 C89.4609387,40.4101571 89.7578107,40.5 90.1171875,40.5 C90.6953154,40.5 91.2187477,40.2500025 91.6875,39.75 C92.1562523,39.2499975 92.5624983,38.648441 92.90625,37.9453125 C93.2500017,37.242184 93.5273427,36.5156288 93.7382812,35.765625 C93.9492198,35.0156212 94.0859372,34.3906275 94.1484375,33.890625 L95.90625,26.2265625 C95.2656218,26.2265625 94.640628,26.3867171 94.03125,26.7070312 C93.421872,27.0273454 92.8476589,27.4609348 92.3085938,28.0078125 C91.7695286,28.5546902 91.2734398,29.179684 90.8203125,29.8828125 C90.3671852,30.585941 89.9218772,31.4531198 89.484375,32.484375 C89.0468728,33.5156302 88.7382821,34.4218711 88.5585938,35.203125 C88.3789054,35.9843789 88.2890625,36.7187466 88.2890625,37.40625 L88.2890625,37.40625 Z M111.75,45 C110.906246,45 110.121097,44.62891 109.394531,43.8867188 C108.667965,43.1445275 108.035159,42.1484438 107.496094,40.8984375 C106.957029,39.6484312 106.535158,38.199227 106.230469,36.5507812 C105.92578,34.9023355 105.773438,33.1718841 105.773438,31.359375 C105.773438,29.968743 105.874999,28.4570394 106.078125,26.8242188 C106.281251,25.1913981 106.578123,23.5078212 106.96875,21.7734375 C107.359377,20.0390538 107.824216,18.2968838 108.363281,16.546875 C108.902346,14.7968662 109.511715,13.1171955 110.191406,11.5078125 C110.871097,9.89842945 111.609371,8.39453824 112.40625,6.99609375 C113.203129,5.59764926 114.039058,4.37891145 114.914062,3.33984375 C115.789067,2.30077605 116.70312,1.48437797 117.65625,0.890625 C118.60938,0.296872031 119.57812,0 120.5625,0 C121.234378,0 121.78906,0.152342227 122.226562,0.45703125 C122.664065,0.761720273 123.007811,1.16406 123.257812,1.6640625 C123.507814,2.164065 123.683593,2.73046559 123.785156,3.36328125 C123.886719,3.99609691 123.9375,4.64062172 123.9375,5.296875 C123.9375,6.76563234 123.769533,8.26171113 123.433594,9.78515625 C123.097655,11.3086014 122.644534,12.8398361 122.074219,14.3789062 C121.503903,15.9179764 120.843754,17.4609298 120.09375,19.0078125 C119.343746,20.5546952 118.562504,22.0898361 117.75,23.6132812 C116.937496,25.1367264 116.121098,26.6367114 115.300781,28.1132812 C114.480465,29.5898511 113.710941,31.031243 112.992188,32.4375 C112.914062,32.5937508 112.832032,32.7968738 112.746094,33.046875 C112.660156,33.2968762 112.578125,33.5664048 112.5,33.8554688 C112.421875,34.1445327 112.34375,34.4531234 112.265625,34.78125 C112.1875,35.1093766 112.125,35.4296859 112.078125,35.7421875 L112.078125,36.0703125 C112.078125,36.4765645 112.121093,36.8710918 112.207031,37.2539062 C112.292969,37.6367207 112.398437,37.9804672 112.523438,38.2851562 C112.648438,38.5898453 112.781249,38.8320304 112.921875,39.0117188 C113.062501,39.1914071 113.195312,39.28125 113.320312,39.28125 C113.617189,39.28125 113.957029,39.2187506 114.339844,39.09375 C114.722658,38.9687494 115.128904,38.8007823 115.558594,38.5898438 C115.988283,38.3789052 116.429685,38.1367201 116.882812,37.8632812 C117.33594,37.5898424 117.773435,37.3125014 118.195312,37.03125 C119.179692,36.3749967 120.210932,35.6171918 121.289062,34.7578125 L123.210938,39.6796875 C121.820306,40.6796925 120.445319,41.5703086 119.085938,42.3515625 C118.492185,42.6796891 117.878909,43.0039046 117.246094,43.3242188 C116.613278,43.6445329 115.976566,43.9296863 115.335938,44.1796875 C114.695309,44.4296887 114.070316,44.6289055 113.460938,44.7773438 C112.851559,44.925782 112.281253,45 111.75,45 L111.75,45 Z M111.773438,26.25 C112.476566,24.9999937 113.222652,23.5937578 114.011719,22.03125 C114.800785,20.4687422 115.546871,18.8593833 116.25,17.203125 C116.953129,15.5468667 117.562497,13.8945395 118.078125,12.2460938 C118.593753,10.597648 118.921874,9.06250711 119.0625,7.640625 C119.0625,7.18749773 119.050781,6.80078285 119.027344,6.48046875 C119.003906,6.16015465 118.929688,6 118.804688,6 C118.35156,6 117.863284,6.29296582 117.339844,6.87890625 C116.816404,7.46484668 116.292971,8.2578075 115.769531,9.2578125 C115.246091,10.2578175 114.746096,11.4218684 114.269531,12.75 C113.792966,14.0781316 113.367189,15.49218 112.992188,16.9921875 C112.617186,18.492195 112.320314,20.0351483 112.101562,21.6210938 C111.882811,23.2070392 111.773438,24.7499925 111.773438,26.25 L111.773438,26.25 Z M133.382812,40.0078125 C132.82031,40.5234401 132.121098,41.0742158 131.285156,41.6601562 C130.449215,42.2460967 129.54688,42.7851538 128.578125,43.2773438 C127.60937,43.7695337 126.621099,44.1796859 125.613281,44.5078125 C124.605464,44.8359391 123.648442,45 122.742188,45 C121.929683,45 121.246097,44.8867199 120.691406,44.6601562 C120.136716,44.4335926 119.687502,44.1171895 119.34375,43.7109375 C118.999998,43.3046855 118.753907,42.8085967 118.605469,42.2226562 C118.457031,41.6367158 118.382812,40.992191 118.382812,40.2890625 C118.382812,39.3046826 118.492186,38.1562566 118.710938,36.84375 C119.14844,34.3124873 119.429687,32.8906266 119.554688,32.578125 C119.773439,31.8906216 120.210934,30.3671993 120.867188,28.0078125 C121.39844,26.0390527 121.726562,24.7578155 121.851562,24.1640625 C121.929688,23.7734355 122.148436,23.4218766 122.507812,23.109375 C122.835939,22.8281236 123.207029,22.5976571 123.621094,22.4179688 C124.035158,22.2382804 124.464842,22.1054692 124.910156,22.0195312 C125.355471,21.9335933 125.757811,21.890625 126.117188,21.890625 C126.773441,21.890625 127.218749,22.0117175 127.453125,22.2539062 C127.687501,22.496095 127.804688,22.8203105 127.804688,23.2265625 C127.804688,23.5703142 127.726563,24.066403 127.570312,24.7148438 C127.414062,25.3632845 127.218751,26.0976521 126.984375,26.9179688 C126.749999,27.7382854 126.453127,28.7226505 126.09375,29.8710938 C125.734373,31.019537 125.437501,32.0664015 125.203125,33.0117188 C124.968749,33.957036 124.773438,34.8789018 124.617188,35.7773438 C124.460937,36.6757857 124.382812,37.4843714 124.382812,38.203125 C124.382812,38.9062535 124.460937,39.4648417 124.617188,39.8789062 C124.773438,40.2929708 125.093748,40.5 125.578125,40.5 C126.140628,40.5 126.765622,40.3046895 127.453125,39.9140625 C128.140628,39.5234355 128.835934,39.050784 129.539062,38.4960938 C130.242191,37.9414035 130.929684,37.3671905 131.601562,36.7734375 C132.273441,36.1796845 132.867185,35.6718771 133.382812,35.25 L133.382812,40.0078125 Z M122.90625,15.4453125 C122.90625,15.0859357 122.984374,14.6796898 123.140625,14.2265625 C123.296876,13.7734352 123.550779,13.3476582 123.902344,12.9492188 C124.253908,12.5507793 124.722653,12.2148451 125.308594,11.9414062 C125.894534,11.6679674 126.624996,11.53125 127.5,11.53125 C128.046878,11.53125 128.562498,11.5937494 129.046875,11.71875 C129.531252,11.8437506 129.953123,12.035155 130.3125,12.2929688 C130.671877,12.5507825 130.95703,12.8906229 131.167969,13.3125 C131.378907,13.7343771 131.484375,14.2343721 131.484375,14.8125 C131.484375,15.3437527 131.398438,15.8593725 131.226562,16.359375 C131.054687,16.8593775 130.781252,17.3046855 130.40625,17.6953125 C130.031248,18.0859395 129.558597,18.4023425 128.988281,18.6445312 C128.417966,18.88672 127.734379,19.0078125 126.9375,19.0078125 C125.562493,19.0078125 124.546878,18.683597 123.890625,18.0351562 C123.234372,17.3867155 122.90625,16.5234429 122.90625,15.4453125 L122.90625,15.4453125 Z M129.375,40.6171875 C129.375,40.2734358 129.437499,39.9882824 129.5625,39.7617188 C129.687501,39.5351551 129.851561,39.3203135 130.054688,39.1171875 C130.257814,38.9140615 130.492186,38.7070323 130.757812,38.4960938 C131.023439,38.2851552 131.296874,38.0234391 131.578125,37.7109375 L139.101562,27.4453125 C138.820311,27.3203119 138.578126,27.2031255 138.375,27.09375 C138.171874,26.9843745 137.988282,26.8867192 137.824219,26.8007812 C137.660155,26.7148433 137.492188,26.6484377 137.320312,26.6015625 C137.148437,26.5546873 136.960939,26.53125 136.757812,26.53125 C136.25781,26.53125 135.843752,26.5390624 135.515625,26.5546875 C135.187498,26.5703126 134.910157,26.6249995 134.683594,26.71875 C134.45703,26.8125005 134.253907,26.9531241 134.074219,27.140625 C133.89453,27.3281259 133.695314,27.5937483 133.476562,27.9375 C132.992185,28.6875038 132.585939,29.2382795 132.257812,29.5898438 C131.929686,29.941408 131.632814,30.1171875 131.367188,30.1171875 C131.117186,30.1171875 130.941407,30.0039074 130.839844,29.7773438 C130.738281,29.5507801 130.6875,29.2500019 130.6875,28.875 C130.6875,28.7187492 130.695312,28.5507821 130.710938,28.3710938 C130.726563,28.1914054 130.75,28.0078134 130.78125,27.8203125 C131.015626,26.4609307 131.35156,25.3593792 131.789062,24.515625 C132.226565,23.6718708 132.714841,23.0195336 133.253906,22.5585938 C133.792971,22.0976539 134.355466,21.7851571 134.941406,21.6210938 C135.527347,21.4570304 136.07031,21.375 136.570312,21.375 C136.945314,21.375 137.320311,21.4648429 137.695312,21.6445312 C138.070314,21.8242196 138.441404,22.0234364 138.808594,22.2421875 C139.175783,22.4609386 139.550779,22.6601554 139.933594,22.8398438 C140.316408,23.0195321 140.710935,23.1171874 141.117188,23.1328125 C141.429689,23.1484376 141.714842,23.15625 141.972656,23.15625 L142.6875,23.15625 C143.312503,23.15625 143.812498,23.1445314 144.1875,23.1210938 C144.562502,23.0976561 144.847655,23.0703127 145.042969,23.0390625 C145.238282,23.0078123 145.375,22.9804689 145.453125,22.9570312 C145.53125,22.9335936 145.59375,22.921875 145.640625,22.921875 C146.187503,22.921875 146.58203,23.1132793 146.824219,23.4960938 C147.066407,23.8789082 147.1875,24.3984342 147.1875,25.0546875 C147.1875,25.5859402 147.140625,26.0390606 147.046875,26.4140625 C147.015625,26.5390631 146.859376,26.6992178 146.578125,26.8945312 C146.296874,27.0898447 145.828128,27.2734366 145.171875,27.4453125 C144.984374,27.7890642 144.671877,28.2734344 144.234375,28.8984375 C143.796873,29.5234406 143.292972,30.2187462 142.722656,30.984375 C142.152341,31.7500038 141.519535,32.6171827 140.824219,33.5859375 C140.128903,34.5546923 139.503909,35.3945277 138.949219,36.1054688 C138.394528,36.8164098 137.910158,37.4335911 137.496094,37.9570312 C137.082029,38.4804714 136.804688,38.8359366 136.664062,39.0234375 L136.546875,39.4921875 C136.5625,39.4921875 136.703124,39.5468745 136.96875,39.65625 C137.234376,39.7656255 137.546873,39.8867181 137.90625,40.0195312 C138.265627,40.1523444 138.644529,40.273437 139.042969,40.3828125 C139.441408,40.492188 139.789061,40.546875 140.085938,40.546875 C140.742191,40.546875 141.339841,40.4492197 141.878906,40.2539062 C142.417971,40.0585928 142.917966,39.8125015 143.378906,39.515625 C143.839846,39.2187485 144.269529,38.9023454 144.667969,38.5664062 C145.066408,38.2304671 145.449217,37.914064 145.816406,37.6171875 C146.183596,37.320311 146.546873,37.0742197 146.90625,36.8789062 C147.265627,36.6835928 147.640623,36.5859375 148.03125,36.5859375 C148.328126,36.5859375 148.597655,36.6562493 148.839844,36.796875 C149.082032,36.9375007 149.285155,37.1171864 149.449219,37.3359375 C149.613282,37.5546886 149.738281,37.8007799 149.824219,38.0742188 C149.910157,38.3476576 149.953125,38.6171862 149.953125,38.8828125 C149.953125,39.3359398 149.781252,39.8085913 149.4375,40.3007812 C149.093748,40.7929712 148.632815,41.2734352 148.054688,41.7421875 C147.47656,42.2109398 146.804691,42.6562479 146.039062,43.078125 C145.273434,43.5000021 144.47266,43.8710921 143.636719,44.1914062 C142.800777,44.5117204 141.949223,44.7656241 141.082031,44.953125 C140.214839,45.1406259 139.398441,45.234375 138.632812,45.234375 C138.570312,45.234375 138.406251,45.2031253 138.140625,45.140625 C137.874999,45.0781247 137.52344,44.972657 137.085938,44.8242188 C136.648435,44.6757805 136.140628,44.4843762 135.5625,44.25 C134.984372,44.0156238 134.351566,43.7187518 133.664062,43.359375 C133.07031,43.5468759 132.55469,43.640625 132.117188,43.640625 C131.648435,43.640625 131.242189,43.5585946 130.898438,43.3945312 C130.554686,43.2304679 130.269532,43.0078139 130.042969,42.7265625 C129.816405,42.4453111 129.648438,42.1250018 129.539062,41.765625 C129.429687,41.4062482 129.375,41.0234395 129.375,40.6171875 L129.375,40.6171875 Z M154.804688,45 C153.33593,45 152.050787,44.7343777 150.949219,44.203125 C149.847651,43.6718723 148.929691,42.9570357 148.195312,42.0585938 C147.460934,41.1601518 146.910158,40.1210996 146.542969,38.9414062 C146.175779,37.7617129 145.992188,36.523444 145.992188,35.2265625 C145.992188,34.3515581 146.156248,33.3085998 146.484375,32.0976562 C146.812502,30.8867127 147.152342,29.8125047 147.503906,28.875 C147.855471,27.9374953 148.296872,27.042973 148.828125,26.1914062 C149.359378,25.3398395 149.980465,24.589847 150.691406,23.9414062 C151.402347,23.2929655 152.199214,22.7773457 153.082031,22.3945312 C153.964848,22.0117168 154.945307,21.8203125 156.023438,21.8203125 C156.898442,21.8203125 157.710934,21.9609361 158.460938,22.2421875 C159.210941,22.5234389 159.863278,22.9179662 160.417969,23.4257812 C160.972659,23.9335963 161.406248,24.5468714 161.71875,25.265625 C162.031252,25.9843786 162.1875,26.789058 162.1875,27.6796875 C162.1875,28.6484423 161.871097,29.734369 161.238281,30.9375 C160.605466,32.140631 159.867192,33.1718707 159.023438,34.03125 C158.179683,34.8906293 157.175787,35.6562466 156.011719,36.328125 C154.84765,37.0000034 153.585944,37.5234356 152.226562,37.8984375 C152.460939,38.3203146 152.691405,38.6718736 152.917969,38.953125 C153.144532,39.2343764 153.374999,39.4531242 153.609375,39.609375 C153.843751,39.7656258 154.089842,39.8749997 154.347656,39.9375 C154.60547,40.0000003 154.882811,40.03125 155.179688,40.03125 C156.117192,40.03125 157.105464,39.8437519 158.144531,39.46875 C159.183599,39.0937481 160.195308,38.6250028 161.179688,38.0625 C162.164067,37.4999972 163.093746,36.8867221 163.96875,36.2226562 C164.843754,35.5585904 165.585934,34.9296905 166.195312,34.3359375 L169.21875,37.4765625 C167.843743,38.8984446 166.38282,40.1562445 164.835938,41.25 C164.164059,41.7187523 163.44141,42.1796852 162.667969,42.6328125 C161.894527,43.0859398 161.082036,43.4882795 160.230469,43.8398438 C159.378902,44.191408 158.496098,44.4726552 157.582031,44.6835938 C156.667964,44.8945323 155.742192,45 154.804688,45 L154.804688,45 Z M151.6875,33.984375 C152.250003,33.984375 152.863278,33.8398452 153.527344,33.5507812 C154.19141,33.2617173 154.808591,32.8906273 155.378906,32.4375 C155.949222,31.9843727 156.50781,31.3750038 157.054688,30.609375 C157.601565,29.8437462 157.875,29.21094 157.875,28.7109375 C157.875,28.007809 157.746095,27.4296898 157.488281,26.9765625 C157.230467,26.5234352 156.914064,26.296875 156.539062,26.296875 C155.867184,26.296875 155.292971,26.4218738 154.816406,26.671875 C154.339841,26.9218762 153.941408,27.2460918 153.621094,27.6445312 C153.30078,28.0429707 153.04297,28.4960912 152.847656,29.0039062 C152.652343,29.5117213 152.425783,30.1406212 152.167969,30.890625 C151.910155,31.6406288 151.765625,32.2578101 151.734375,32.7421875 C151.703125,33.2265649 151.6875,33.6406233 151.6875,33.984375 L151.6875,33.984375 Z" id="Visualize" fill="#4972E2"></path>
    </g>
</svg>